<mxfile host="app.diagrams.net" modified="2020-04-18T18:58:06.023Z" agent="5.0 (X11)" etag="3XlGAivKfy-ryi9xlcGg" version="12.9.14" type="github">
  <diagram id="VrNC-ARfE6LY--idrHot" name="Page-1">
    <mxGraphModel dx="1422" dy="767" grid="1" gridSize="10" guides="1" tooltips="1" connect="1" arrows="1" fold="1" page="1" pageScale="1" pageWidth="850" pageHeight="1100" math="0" shadow="0">
      <root>
        <mxCell id="0" />
        <mxCell id="1" parent="0" />
        <mxCell id="gcFYHbaqfnFtGnlrjqvY-19" value="" style="group" vertex="1" connectable="0" parent="1">
          <mxGeometry x="40" y="70" width="322" height="250" as="geometry" />
        </mxCell>
        <mxCell id="gcFYHbaqfnFtGnlrjqvY-1" value="&lt;b&gt;Load Balancer&lt;/b&gt;" style="verticalLabelPosition=bottom;html=1;fillColor=#A153A0;verticalAlign=top;pointerEvents=1;align=center;points=[[0.25,0,0],[0.5,0,0],[0.75,0,0],[1,0.5,0],[0.75,1,0],[0.5,1,0],[0.25,1,0],[0,0.5,0],[0.125,0.25,0],[0.125,0.75,0],[0.875,0.25,0],[0.875,0.75,0]];shape=mxgraph.cisco_safe.design.load_balancer;" vertex="1" parent="gcFYHbaqfnFtGnlrjqvY-19">
          <mxGeometry y="82.5" width="50" height="45" as="geometry" />
        </mxCell>
        <mxCell id="gcFYHbaqfnFtGnlrjqvY-3" value="&lt;b&gt;NDN Router&lt;/b&gt;" style="verticalLabelPosition=bottom;html=1;fillColor=#6ABD46;verticalAlign=top;align=center;points=[[0.06,0.06,0],[0.94,0.06,0],[0.94,0.94,0],[0.06,0.94,0],[0.25,0,0],[0.5,0,0],[0.75,0,0],[1,0.25,0],[1,0.5,0],[1,0.75,0],[0.75,1,0],[0.5,1,0],[0.25,1,0],[0,0.75,0],[0,0.5,0],[0,0.25,0]];pointerEvents=1;shape=mxgraph.cisco_safe.architecture.router;" vertex="1" parent="gcFYHbaqfnFtGnlrjqvY-19">
          <mxGeometry x="180" y="80" width="50" height="50" as="geometry" />
        </mxCell>
        <mxCell id="gcFYHbaqfnFtGnlrjqvY-13" style="edgeStyle=orthogonalEdgeStyle;rounded=0;orthogonalLoop=1;jettySize=auto;html=1;entryX=0;entryY=0.5;entryDx=0;entryDy=0;entryPerimeter=0;strokeWidth=2;" edge="1" parent="gcFYHbaqfnFtGnlrjqvY-19" source="gcFYHbaqfnFtGnlrjqvY-1" target="gcFYHbaqfnFtGnlrjqvY-3">
          <mxGeometry relative="1" as="geometry" />
        </mxCell>
        <mxCell id="gcFYHbaqfnFtGnlrjqvY-4" value="&lt;b&gt;NDN Router&lt;/b&gt;" style="verticalLabelPosition=bottom;html=1;fillColor=#6ABD46;verticalAlign=top;align=center;points=[[0.06,0.06,0],[0.94,0.06,0],[0.94,0.94,0],[0.06,0.94,0],[0.25,0,0],[0.5,0,0],[0.75,0,0],[1,0.25,0],[1,0.5,0],[1,0.75,0],[0.75,1,0],[0.5,1,0],[0.25,1,0],[0,0.75,0],[0,0.5,0],[0,0.25,0]];pointerEvents=1;shape=mxgraph.cisco_safe.architecture.router;" vertex="1" parent="gcFYHbaqfnFtGnlrjqvY-19">
          <mxGeometry x="180" width="50" height="50" as="geometry" />
        </mxCell>
        <mxCell id="gcFYHbaqfnFtGnlrjqvY-12" style="edgeStyle=orthogonalEdgeStyle;rounded=0;orthogonalLoop=1;jettySize=auto;html=1;exitX=1;exitY=0.5;exitDx=0;exitDy=0;exitPerimeter=0;entryX=0;entryY=0.5;entryDx=0;entryDy=0;entryPerimeter=0;strokeWidth=2;" edge="1" parent="gcFYHbaqfnFtGnlrjqvY-19" source="gcFYHbaqfnFtGnlrjqvY-1" target="gcFYHbaqfnFtGnlrjqvY-4">
          <mxGeometry relative="1" as="geometry" />
        </mxCell>
        <mxCell id="gcFYHbaqfnFtGnlrjqvY-5" value="&lt;b&gt;NDN Router&lt;/b&gt;" style="verticalLabelPosition=bottom;html=1;fillColor=#6ABD46;verticalAlign=top;align=center;points=[[0.06,0.06,0],[0.94,0.06,0],[0.94,0.94,0],[0.06,0.94,0],[0.25,0,0],[0.5,0,0],[0.75,0,0],[1,0.25,0],[1,0.5,0],[1,0.75,0],[0.75,1,0],[0.5,1,0],[0.25,1,0],[0,0.75,0],[0,0.5,0],[0,0.25,0]];pointerEvents=1;shape=mxgraph.cisco_safe.architecture.router;" vertex="1" parent="gcFYHbaqfnFtGnlrjqvY-19">
          <mxGeometry x="180" y="200" width="50" height="50" as="geometry" />
        </mxCell>
        <mxCell id="gcFYHbaqfnFtGnlrjqvY-14" style="edgeStyle=orthogonalEdgeStyle;rounded=0;orthogonalLoop=1;jettySize=auto;html=1;exitX=1;exitY=0.5;exitDx=0;exitDy=0;exitPerimeter=0;entryX=0;entryY=0.5;entryDx=0;entryDy=0;entryPerimeter=0;strokeWidth=2;" edge="1" parent="gcFYHbaqfnFtGnlrjqvY-19" source="gcFYHbaqfnFtGnlrjqvY-1" target="gcFYHbaqfnFtGnlrjqvY-5">
          <mxGeometry relative="1" as="geometry" />
        </mxCell>
        <mxCell id="gcFYHbaqfnFtGnlrjqvY-8" value="" style="endArrow=none;html=1;strokeWidth=3;dashed=1;dashPattern=1 4;" edge="1" parent="gcFYHbaqfnFtGnlrjqvY-19">
          <mxGeometry width="50" height="50" relative="1" as="geometry">
            <mxPoint x="204.5" y="190" as="sourcePoint" />
            <mxPoint x="204.5" y="150" as="targetPoint" />
          </mxGeometry>
        </mxCell>
        <mxCell id="gcFYHbaqfnFtGnlrjqvY-10" value="&lt;b&gt;Content Store A&lt;br&gt;&lt;/b&gt;" style="outlineConnect=0;dashed=0;verticalLabelPosition=bottom;verticalAlign=top;align=center;html=1;shape=mxgraph.aws3.volume;fillColor=#E05243;gradientColor=none;" vertex="1" parent="gcFYHbaqfnFtGnlrjqvY-19">
          <mxGeometry x="287" width="35" height="50" as="geometry" />
        </mxCell>
        <mxCell id="gcFYHbaqfnFtGnlrjqvY-11" style="edgeStyle=orthogonalEdgeStyle;rounded=0;orthogonalLoop=1;jettySize=auto;html=1;exitX=1;exitY=0.5;exitDx=0;exitDy=0;exitPerimeter=0;entryX=0;entryY=0.5;entryDx=0;entryDy=0;entryPerimeter=0;strokeWidth=2;" edge="1" parent="gcFYHbaqfnFtGnlrjqvY-19" source="gcFYHbaqfnFtGnlrjqvY-4" target="gcFYHbaqfnFtGnlrjqvY-10">
          <mxGeometry relative="1" as="geometry" />
        </mxCell>
        <mxCell id="gcFYHbaqfnFtGnlrjqvY-15" value="&lt;b&gt;Content Store B&lt;br&gt;&lt;/b&gt;" style="outlineConnect=0;dashed=0;verticalLabelPosition=bottom;verticalAlign=top;align=center;html=1;shape=mxgraph.aws3.volume;fillColor=#E05243;gradientColor=none;" vertex="1" parent="gcFYHbaqfnFtGnlrjqvY-19">
          <mxGeometry x="287" y="80" width="35" height="50" as="geometry" />
        </mxCell>
        <mxCell id="gcFYHbaqfnFtGnlrjqvY-18" style="edgeStyle=orthogonalEdgeStyle;rounded=0;orthogonalLoop=1;jettySize=auto;html=1;exitX=1;exitY=0.5;exitDx=0;exitDy=0;exitPerimeter=0;entryX=0;entryY=0.5;entryDx=0;entryDy=0;entryPerimeter=0;strokeWidth=2;" edge="1" parent="gcFYHbaqfnFtGnlrjqvY-19" source="gcFYHbaqfnFtGnlrjqvY-3" target="gcFYHbaqfnFtGnlrjqvY-15">
          <mxGeometry relative="1" as="geometry" />
        </mxCell>
        <mxCell id="gcFYHbaqfnFtGnlrjqvY-16" value="&lt;b&gt;Content Store N&lt;br&gt;&lt;/b&gt;" style="outlineConnect=0;dashed=0;verticalLabelPosition=bottom;verticalAlign=top;align=center;html=1;shape=mxgraph.aws3.volume;fillColor=#E05243;gradientColor=none;" vertex="1" parent="gcFYHbaqfnFtGnlrjqvY-19">
          <mxGeometry x="287" y="200" width="35" height="50" as="geometry" />
        </mxCell>
        <mxCell id="gcFYHbaqfnFtGnlrjqvY-17" style="edgeStyle=orthogonalEdgeStyle;rounded=0;orthogonalLoop=1;jettySize=auto;html=1;exitX=1;exitY=0.5;exitDx=0;exitDy=0;exitPerimeter=0;entryX=0;entryY=0.5;entryDx=0;entryDy=0;entryPerimeter=0;strokeWidth=2;" edge="1" parent="gcFYHbaqfnFtGnlrjqvY-19" source="gcFYHbaqfnFtGnlrjqvY-5" target="gcFYHbaqfnFtGnlrjqvY-16">
          <mxGeometry relative="1" as="geometry" />
        </mxCell>
        <mxCell id="gcFYHbaqfnFtGnlrjqvY-37" value="" style="group" vertex="1" connectable="0" parent="1">
          <mxGeometry x="40" y="400" width="322" height="250" as="geometry" />
        </mxCell>
        <mxCell id="gcFYHbaqfnFtGnlrjqvY-21" value="&lt;b&gt;Load Balancer&lt;/b&gt;" style="verticalLabelPosition=bottom;html=1;fillColor=#A153A0;verticalAlign=top;pointerEvents=1;align=center;points=[[0.25,0,0],[0.5,0,0],[0.75,0,0],[1,0.5,0],[0.75,1,0],[0.5,1,0],[0.25,1,0],[0,0.5,0],[0.125,0.25,0],[0.125,0.75,0],[0.875,0.25,0],[0.875,0.75,0]];shape=mxgraph.cisco_safe.design.load_balancer;" vertex="1" parent="gcFYHbaqfnFtGnlrjqvY-37">
          <mxGeometry y="82.5" width="50" height="45" as="geometry" />
        </mxCell>
        <mxCell id="gcFYHbaqfnFtGnlrjqvY-22" value="&lt;b&gt;NDN Router&lt;/b&gt;" style="verticalLabelPosition=bottom;html=1;fillColor=#6ABD46;verticalAlign=top;align=center;points=[[0.06,0.06,0],[0.94,0.06,0],[0.94,0.94,0],[0.06,0.94,0],[0.25,0,0],[0.5,0,0],[0.75,0,0],[1,0.25,0],[1,0.5,0],[1,0.75,0],[0.75,1,0],[0.5,1,0],[0.25,1,0],[0,0.75,0],[0,0.5,0],[0,0.25,0]];pointerEvents=1;shape=mxgraph.cisco_safe.architecture.router;" vertex="1" parent="gcFYHbaqfnFtGnlrjqvY-37">
          <mxGeometry x="180" y="80" width="50" height="50" as="geometry" />
        </mxCell>
        <mxCell id="gcFYHbaqfnFtGnlrjqvY-23" style="edgeStyle=orthogonalEdgeStyle;rounded=0;orthogonalLoop=1;jettySize=auto;html=1;entryX=0;entryY=0.5;entryDx=0;entryDy=0;entryPerimeter=0;strokeWidth=2;" edge="1" parent="gcFYHbaqfnFtGnlrjqvY-37" source="gcFYHbaqfnFtGnlrjqvY-21" target="gcFYHbaqfnFtGnlrjqvY-22">
          <mxGeometry relative="1" as="geometry" />
        </mxCell>
        <mxCell id="gcFYHbaqfnFtGnlrjqvY-24" value="&lt;b&gt;NDN Router&lt;/b&gt;" style="verticalLabelPosition=bottom;html=1;fillColor=#6ABD46;verticalAlign=top;align=center;points=[[0.06,0.06,0],[0.94,0.06,0],[0.94,0.94,0],[0.06,0.94,0],[0.25,0,0],[0.5,0,0],[0.75,0,0],[1,0.25,0],[1,0.5,0],[1,0.75,0],[0.75,1,0],[0.5,1,0],[0.25,1,0],[0,0.75,0],[0,0.5,0],[0,0.25,0]];pointerEvents=1;shape=mxgraph.cisco_safe.architecture.router;" vertex="1" parent="gcFYHbaqfnFtGnlrjqvY-37">
          <mxGeometry x="180" width="50" height="50" as="geometry" />
        </mxCell>
        <mxCell id="gcFYHbaqfnFtGnlrjqvY-25" style="edgeStyle=orthogonalEdgeStyle;rounded=0;orthogonalLoop=1;jettySize=auto;html=1;exitX=1;exitY=0.5;exitDx=0;exitDy=0;exitPerimeter=0;entryX=0;entryY=0.5;entryDx=0;entryDy=0;entryPerimeter=0;strokeWidth=2;" edge="1" parent="gcFYHbaqfnFtGnlrjqvY-37" source="gcFYHbaqfnFtGnlrjqvY-21" target="gcFYHbaqfnFtGnlrjqvY-24">
          <mxGeometry relative="1" as="geometry" />
        </mxCell>
        <mxCell id="gcFYHbaqfnFtGnlrjqvY-26" value="NDN Router" style="verticalLabelPosition=bottom;html=1;fillColor=#6ABD46;verticalAlign=top;align=center;points=[[0.06,0.06,0],[0.94,0.06,0],[0.94,0.94,0],[0.06,0.94,0],[0.25,0,0],[0.5,0,0],[0.75,0,0],[1,0.25,0],[1,0.5,0],[1,0.75,0],[0.75,1,0],[0.5,1,0],[0.25,1,0],[0,0.75,0],[0,0.5,0],[0,0.25,0]];pointerEvents=1;shape=mxgraph.cisco_safe.architecture.router;fontStyle=1" vertex="1" parent="gcFYHbaqfnFtGnlrjqvY-37">
          <mxGeometry x="180" y="200" width="50" height="50" as="geometry" />
        </mxCell>
        <mxCell id="gcFYHbaqfnFtGnlrjqvY-27" style="edgeStyle=orthogonalEdgeStyle;rounded=0;orthogonalLoop=1;jettySize=auto;html=1;exitX=1;exitY=0.5;exitDx=0;exitDy=0;exitPerimeter=0;entryX=0;entryY=0.5;entryDx=0;entryDy=0;entryPerimeter=0;strokeWidth=2;" edge="1" parent="gcFYHbaqfnFtGnlrjqvY-37" source="gcFYHbaqfnFtGnlrjqvY-21" target="gcFYHbaqfnFtGnlrjqvY-26">
          <mxGeometry relative="1" as="geometry" />
        </mxCell>
        <mxCell id="gcFYHbaqfnFtGnlrjqvY-28" value="" style="endArrow=none;html=1;strokeWidth=3;dashed=1;dashPattern=1 4;" edge="1" parent="gcFYHbaqfnFtGnlrjqvY-37">
          <mxGeometry width="50" height="50" relative="1" as="geometry">
            <mxPoint x="204.5" y="190" as="sourcePoint" />
            <mxPoint x="204.5" y="150" as="targetPoint" />
          </mxGeometry>
        </mxCell>
        <mxCell id="gcFYHbaqfnFtGnlrjqvY-30" style="edgeStyle=orthogonalEdgeStyle;rounded=0;orthogonalLoop=1;jettySize=auto;html=1;exitX=1;exitY=0.5;exitDx=0;exitDy=0;exitPerimeter=0;entryX=0;entryY=0.5;entryDx=0;entryDy=0;entryPerimeter=0;strokeWidth=2;" edge="1" parent="gcFYHbaqfnFtGnlrjqvY-37" source="gcFYHbaqfnFtGnlrjqvY-24" target="gcFYHbaqfnFtGnlrjqvY-31">
          <mxGeometry relative="1" as="geometry">
            <mxPoint x="287" y="25" as="targetPoint" />
          </mxGeometry>
        </mxCell>
        <mxCell id="gcFYHbaqfnFtGnlrjqvY-31" value="&lt;b&gt;Content Store&lt;br&gt;&lt;/b&gt;" style="outlineConnect=0;dashed=0;verticalLabelPosition=bottom;verticalAlign=top;align=center;html=1;shape=mxgraph.aws3.volume;fillColor=#E05243;gradientColor=none;" vertex="1" parent="gcFYHbaqfnFtGnlrjqvY-37">
          <mxGeometry x="287" y="80" width="35" height="50" as="geometry" />
        </mxCell>
        <mxCell id="gcFYHbaqfnFtGnlrjqvY-32" style="edgeStyle=orthogonalEdgeStyle;rounded=0;orthogonalLoop=1;jettySize=auto;html=1;exitX=1;exitY=0.5;exitDx=0;exitDy=0;exitPerimeter=0;entryX=0;entryY=0.5;entryDx=0;entryDy=0;entryPerimeter=0;strokeWidth=2;" edge="1" parent="gcFYHbaqfnFtGnlrjqvY-37" source="gcFYHbaqfnFtGnlrjqvY-22" target="gcFYHbaqfnFtGnlrjqvY-31">
          <mxGeometry relative="1" as="geometry" />
        </mxCell>
        <mxCell id="gcFYHbaqfnFtGnlrjqvY-34" style="edgeStyle=orthogonalEdgeStyle;rounded=0;orthogonalLoop=1;jettySize=auto;html=1;exitX=1;exitY=0.5;exitDx=0;exitDy=0;exitPerimeter=0;entryX=0;entryY=0.5;entryDx=0;entryDy=0;entryPerimeter=0;strokeWidth=2;" edge="1" parent="gcFYHbaqfnFtGnlrjqvY-37" source="gcFYHbaqfnFtGnlrjqvY-26" target="gcFYHbaqfnFtGnlrjqvY-31">
          <mxGeometry relative="1" as="geometry">
            <mxPoint x="287" y="225" as="targetPoint" />
          </mxGeometry>
        </mxCell>
      </root>
    </mxGraphModel>
  </diagram>
</mxfile>
